<svg width="108" height="50" viewBox="0 0 108 50" fill="none" xmlns="http://www.w3.org/2000/svg">
<path d="M4.79621 0L8.7613 13.0612H8.90848L12.8736 0H17.6698L11.6875 17.8329H5.98227L0 0H4.79621Z" fill="black"/>
<path d="M24.191 18.0854C22.7942 18.0854 21.5937 17.798 20.5895 17.2233C19.591 16.6428 18.8205 15.836 18.278 14.8027C17.7412 13.7636 17.4728 12.559 17.4728 11.1891C17.4728 9.8133 17.7412 8.60877 18.278 7.57548C18.8205 6.53639 19.591 5.7295 20.5895 5.15481C21.5937 4.57431 22.7942 4.28407 24.191 4.28407C25.5877 4.28407 26.7853 4.57431 27.7838 5.15481C28.7881 5.7295 29.5586 6.53639 30.0953 7.57548C30.6379 8.60877 30.9091 9.8133 30.9091 11.1891C30.9091 12.559 30.6379 13.7636 30.0953 14.8027C29.5586 15.836 28.7881 16.6428 27.7838 17.2233C26.7853 17.798 25.5877 18.0854 24.191 18.0854ZM24.2169 14.8723C24.7248 14.8723 25.1548 14.7156 25.5069 14.4021C25.859 14.0887 26.1273 13.6533 26.312 13.096C26.5025 12.5387 26.5977 11.8944 26.5977 11.163C26.5977 10.4199 26.5025 9.76976 26.312 9.21248C26.1273 8.65521 25.859 8.21983 25.5069 7.90637C25.1548 7.5929 24.7248 7.43616 24.2169 7.43616C23.6917 7.43616 23.2473 7.5929 22.8837 7.90637C22.5259 8.21983 22.2517 8.65521 22.0612 9.21248C21.8766 9.76976 21.7842 10.4199 21.7842 11.163C21.7842 11.8944 21.8766 12.5387 22.0612 13.096C22.2517 13.6533 22.5259 14.0887 22.8837 14.4021C23.2473 14.7156 23.6917 14.8723 24.2169 14.8723Z" fill="black"/>
<path d="M39.2852 18.0854C37.8884 18.0854 36.6879 17.798 35.6837 17.2233C34.6852 16.6428 33.9147 15.836 33.3722 14.8027C32.8354 13.7636 32.567 12.559 32.567 11.1891C32.567 9.8133 32.8354 8.60877 33.3722 7.57548C33.9147 6.53639 34.6852 5.7295 35.6837 5.15481C36.6879 4.57431 37.8884 4.28407 39.2852 4.28407C40.6819 4.28407 41.8795 4.57431 42.878 5.15481C43.8823 5.7295 44.6528 6.53639 45.1895 7.57548C45.7321 8.60877 46.0033 9.8133 46.0033 11.1891C46.0033 12.559 45.7321 13.7636 45.1895 14.8027C44.6528 15.836 43.8823 16.6428 42.878 17.2233C41.8795 17.798 40.6819 18.0854 39.2852 18.0854ZM39.3111 14.8723C39.819 14.8723 40.249 14.7156 40.6011 14.4021C40.9532 14.0887 41.2215 13.6533 41.4062 13.096C41.5967 12.5387 41.6919 11.8944 41.6919 11.163C41.6919 10.4199 41.5967 9.76976 41.4062 9.21248C41.2215 8.65521 40.9532 8.21983 40.6011 7.90637C40.249 7.5929 39.819 7.43616 39.3111 7.43616C38.7859 7.43616 38.3415 7.5929 37.9779 7.90637C37.6201 8.21983 37.3459 8.65521 37.1554 9.21248C36.9708 9.76976 36.8784 10.4199 36.8784 11.163C36.8784 11.8944 36.9708 12.5387 37.1554 13.096C37.3459 13.6533 37.6201 14.0887 37.9779 14.4021C38.3415 14.7156 38.7859 14.8723 39.3111 14.8723Z" fill="black"/>
<path d="M54.7257 17.8329H48.172V0H54.717C56.5235 0 58.079 0.357006 59.3833 1.07102C60.6935 1.77922 61.7035 2.8009 62.4134 4.13604C63.1233 5.46538 63.4783 7.05594 63.4783 8.90772C63.4783 10.7653 63.1233 12.3617 62.4134 13.6968C61.7093 15.032 60.7022 16.0565 59.392 16.7706C58.0818 17.4788 56.5264 17.8329 54.7257 17.8329ZM52.4574 14.1583H54.5612C55.5539 14.1583 56.3937 13.99 57.0805 13.6533C57.7731 13.3108 58.2954 12.7564 58.6475 11.9902C59.0053 11.2181 59.1842 10.1906 59.1842 8.90772C59.1842 7.62483 59.0053 6.60315 58.6475 5.8427C58.2896 5.07644 57.7615 4.52497 57.0632 4.18828C56.3706 3.84579 55.5164 3.67454 54.5006 3.67454H52.4574V14.1583Z" fill="black"/>
<path d="M72.1877 18.0854C70.7909 18.0854 69.5904 17.798 68.5862 17.2233C67.5877 16.6428 66.8172 15.836 66.2746 14.8027C65.7379 13.7636 65.4695 12.559 65.4695 11.1891C65.4695 9.8133 65.7379 8.60877 66.2746 7.57548C66.8172 6.53639 67.5877 5.7295 68.5862 5.15481C69.5904 4.57431 70.7909 4.28407 72.1877 4.28407C73.5844 4.28407 74.782 4.57431 75.7805 5.15481C76.7847 5.7295 77.5553 6.53639 78.092 7.57548C78.6345 8.60877 78.9058 9.8133 78.9058 11.1891C78.9058 12.559 78.6345 13.7636 78.092 14.8027C77.5553 15.836 76.7847 16.6428 75.7805 17.2233C74.782 17.798 73.5844 18.0854 72.1877 18.0854ZM72.2136 14.8723C72.7215 14.8723 73.1515 14.7156 73.5036 14.4021C73.8557 14.0887 74.124 13.6533 74.3087 13.096C74.4992 12.5387 74.5944 11.8944 74.5944 11.163C74.5944 10.4199 74.4992 9.76976 74.3087 9.21248C74.124 8.65521 73.8557 8.21983 73.5036 7.90637C73.1515 7.5929 72.7215 7.43616 72.2136 7.43616C71.6884 7.43616 71.244 7.5929 70.8804 7.90637C70.5225 8.21983 70.2484 8.65521 70.0579 9.21248C69.8732 9.76976 69.7809 10.4199 69.7809 11.163C69.7809 11.8944 69.8732 12.5387 70.0579 13.096C70.2484 13.6533 70.5225 14.0887 70.8804 14.4021C71.244 14.7156 71.6884 14.8723 72.2136 14.8723Z" fill="black"/>
<path d="M87.2819 18.0854C85.8851 18.0854 84.6846 17.798 83.6804 17.2233C82.6819 16.6428 81.9114 15.836 81.3688 14.8027C80.8321 13.7636 80.5637 12.559 80.5637 11.1891C80.5637 9.8133 80.8321 8.60877 81.3688 7.57548C81.9114 6.53639 82.6819 5.7295 83.6804 5.15481C84.6846 4.57431 85.8851 4.28407 87.2819 4.28407C88.6786 4.28407 89.8762 4.57431 90.8747 5.15481C91.8789 5.7295 92.6494 6.53639 93.1862 7.57548C93.7287 8.60877 94 9.8133 94 11.1891C94 12.559 93.7287 13.7636 93.1862 14.8027C92.6494 15.836 91.8789 16.6428 90.8747 17.2233C89.8762 17.798 88.6786 18.0854 87.2819 18.0854ZM87.3078 14.8723C87.8157 14.8723 88.2457 14.7156 88.5978 14.4021C88.9498 14.0887 89.2182 13.6533 89.4029 13.096C89.5934 12.5387 89.6886 11.8944 89.6886 11.163C89.6886 10.4199 89.5934 9.76976 89.4029 9.21248C89.2182 8.65521 88.9498 8.21983 88.5978 7.90637C88.2457 7.5929 87.8157 7.43616 87.3078 7.43616C86.7826 7.43616 86.3382 7.5929 85.9746 7.90637C85.6167 8.21983 85.3426 8.65521 85.1521 9.21248C84.9674 9.76976 84.8751 10.4199 84.8751 11.163C84.8751 11.8944 84.9674 12.5387 85.1521 13.096C85.3426 13.6533 85.6167 14.0887 85.9746 14.4021C86.3382 14.7156 86.7826 14.8723 87.3078 14.8723Z" fill="black"/>
<path d="M0.190463 33.415V29.9146H15.1764V33.415H9.80019V47.7475H5.57537V33.415H0.190463Z" fill="black"/>
<path d="M21.557 48C20.166 48 18.9655 47.7243 17.9555 47.1728C16.9512 46.6155 16.1778 45.8231 15.6353 44.7957C15.0985 43.7624 14.8301 42.5346 14.8301 41.1124C14.8301 39.7308 15.1014 38.5234 15.6439 37.4901C16.1865 36.451 16.9512 35.6441 17.9382 35.0694C18.9251 34.4889 20.0881 34.1987 21.4271 34.1987C22.3736 34.1987 23.2394 34.3467 24.0243 34.6428C24.8093 34.9388 25.4874 35.3771 26.0588 35.9576C26.6302 36.5381 27.0746 37.255 27.392 38.1083C27.7095 38.9559 27.8682 39.9282 27.8682 41.0253V42.0876H16.3106V39.6147H23.9291C23.9233 39.1619 23.8165 38.7585 23.6088 38.4044C23.401 38.0503 23.1153 37.7745 22.7517 37.5772C22.3938 37.374 21.9812 37.2724 21.5137 37.2724C21.0404 37.2724 20.6162 37.3798 20.241 37.5946C19.8659 37.8036 19.5686 38.0909 19.3493 38.4566C19.13 38.8165 19.0146 39.2258 19.003 39.6844V42.2008C19.003 42.7465 19.1098 43.2254 19.3233 43.6376C19.5369 44.0439 19.8399 44.3603 20.2324 44.5867C20.6248 44.8131 21.0923 44.9263 21.6349 44.9263C22.01 44.9263 22.3505 44.874 22.6564 44.7695C22.9623 44.665 23.2249 44.5112 23.4443 44.308C23.6636 44.1049 23.8281 43.8553 23.9377 43.5592L27.8249 43.6724C27.6633 44.5489 27.3084 45.3123 26.7601 45.9625C26.2175 46.6068 25.5047 47.1089 24.6217 47.4688C23.7386 47.8229 22.717 48 21.557 48Z" fill="black"/>
<path d="M41.64 38.4566L37.7528 38.5611C37.7124 38.2825 37.6027 38.0358 37.4238 37.821C37.2449 37.6004 37.0112 37.4292 36.7226 37.3073C36.4398 37.1795 36.1108 37.1157 35.7356 37.1157C35.245 37.1157 34.8266 37.2144 34.4803 37.4117C34.1398 37.6091 33.9724 37.8761 33.9782 38.2128C33.9724 38.474 34.0763 38.7004 34.2898 38.892C34.5092 39.0836 34.8987 39.2374 35.4586 39.3535L38.0212 39.8411C39.3487 40.0965 40.3356 40.5203 40.982 41.1124C41.6342 41.7045 41.9632 42.4882 41.969 43.4634C41.9632 44.3806 41.6919 45.1788 41.1552 45.858C40.6242 46.5371 39.897 47.0654 38.9735 47.4427C38.05 47.8142 36.9938 48 35.8049 48C33.906 48 32.4083 47.6082 31.3117 46.8245C30.2209 46.035 29.5975 44.9785 29.4417 43.655L33.6232 43.5505C33.7156 44.0381 33.9551 44.4096 34.3418 44.665C34.7285 44.9205 35.222 45.0482 35.8222 45.0482C36.3647 45.0482 36.8063 44.9466 37.1468 44.7434C37.4873 44.5402 37.6605 44.2703 37.6662 43.9336C37.6605 43.6318 37.5277 43.3909 37.268 43.2109C37.0083 43.0251 36.6014 42.88 36.0473 42.7755L33.7271 42.3314C32.3939 42.0876 31.4011 41.6378 30.749 40.9818C30.0968 40.32 29.7736 39.4783 29.7793 38.4566C29.7736 37.5627 30.0102 36.7993 30.4892 36.1666C30.9683 35.528 31.6493 35.0404 32.5324 34.7037C33.4154 34.367 34.4572 34.1987 35.6577 34.1987C37.4585 34.1987 38.8783 34.5789 39.9172 35.3394C40.956 36.094 41.5303 37.1331 41.64 38.4566Z" fill="black"/>
<path d="M51.5592 34.3728V37.5075H43.1702V34.3728H51.5592ZM44.9276 31.1685H49.1611V43.5418C49.1611 43.803 49.2015 44.0149 49.2823 44.1774C49.3689 44.3342 49.493 44.4474 49.6546 44.517C49.8162 44.5809 50.0095 44.6128 50.2346 44.6128C50.3962 44.6128 50.5665 44.5983 50.7454 44.5693C50.9301 44.5344 51.0686 44.5054 51.161 44.4822L51.8016 47.5559C51.5996 47.614 51.3139 47.6865 50.9445 47.7736C50.5809 47.8607 50.1452 47.9158 49.6373 47.939C48.6445 47.9855 47.7932 47.8694 47.0833 47.5908C46.3792 47.3063 45.8395 46.8651 45.4644 46.2672C45.095 45.6693 44.9161 44.9176 44.9276 44.012V31.1685Z" fill="black"/>
</svg>
